<svg height="511pt" viewBox="-53 0 511 511.9996" width="511pt" xmlns="http://www.w3.org/2000/svg"><path d="m334.167969 275.796875v215.40625c0 16.21875-17.761719 26.171875-31.597657 17.71875l-88.980468-54.347656c-6.636719-4.058594-15.003906-4.058594-21.644532 0l-88.976562 54.347656c-13.835938 8.453125-31.597656-1.5-31.597656-17.71875v-215.40625zm0 0" fill="#f44545"/><path d="m334.167969 275.796875v56.6875c-.3125.261719-.570313.5-.777344.714844-1.148437 1.203125-2.476563 3.273437-2.320313 6.289062l1.398438 27.503907c.859375 16.734374-4.910156 32.519531-16.21875 44.429687-11.472656 12.074219-27.617188 19-44.292969 19-17.023437 0-32.796875-7.09375-44.425781-19.964844l-18.457031-20.441406c-2.203125-2.433594-4.898438-2.808594-6.304688-2.808594-1.410156 0-4.101562.375-6.308593 2.808594l-18.453126 20.441406c-11.628906 12.871094-27.402343 19.964844-44.429687 19.964844-16.671875 0-32.816406-6.917969-44.28125-18.992187-11.320313-11.910157-17.085937-27.691407-16.226563-44.4375l1.398438-27.503907c.152344-3.015625-1.171875-5.085937-2.320312-6.289062-.207032-.214844-.46875-.453125-.777344-.714844v-56.6875zm0 0" fill="#d63030"/><path d="m368.808594 306.109375-27.507813-1.398437c-20.347656-1.046876-37.136719 15.742187-36.089843 36.089843l1.398437 27.507813c1.65625 32.320312-38.183594 48.816406-59.859375 24.800781l-18.453125-20.441406c-9.394531-10.398438-23.539063-13.648438-35.90625-9.753907-5.621094 1.769532-10.882813 5.019532-15.148437 9.753907l-18.457032 20.441406c-21.675781 24.015625-61.515625 7.519531-59.855468-24.800781l1.398437-27.507813c1.042969-20.347656-15.742187-37.136719-36.09375-36.089843l-27.503906 1.398437c-32.320313 1.65625-48.820313-38.183594-24.804688-59.859375l20.445313-18.453125c15.128906-13.660156 15.128906-37.394531 0-51.054687l-20.445313-18.457032c-24.015625-21.683594-7.515625-61.511718 24.804688-59.867187l27.503906 1.410156c20.351563 1.035156 37.136719-15.742187 36.09375-36.101563l-1.398437-27.496093c-1.660157-32.320313 38.179687-48.820313 59.855468-24.804688l18.457032 20.445313c1.71875 1.90625 3.601562 3.570312 5.601562 5 13.878906 9.890625 33.511719 8.222656 45.453125-5l18.453125-20.445313c21.675781-24.015625 61.515625-7.515625 59.859375 24.804688l-1.398437 27.496093c-1.046876 20.359376 15.742187 37.136719 36.089843 36.101563l27.507813-1.410156c32.320312-1.644531 48.816406 38.183593 24.800781 59.867187l-20.441406 18.457032c-15.128907 13.660156-15.128907 37.394531 0 51.054687l20.441406 18.453125c24.015625 21.675781 7.519531 61.515625-24.800781 59.859375zm0 0" fill="#ffc14f"/><path d="m368.808594 306.109375-27.507813-1.398437c-20.347656-1.046876-37.136719 15.742187-36.089843 36.089843l1.398437 27.507813c1.65625 32.320312-38.183594 48.816406-59.859375 24.800781l-18.453125-20.441406c-9.394531-10.398438-23.539063-13.648438-35.90625-9.753907-44.03125-42.390624-71.433594-101.945312-71.433594-167.894531 0-61.039062 23.464844-116.597656 61.886719-158.148437 13.878906 9.890625 33.511719 8.222656 45.453125-5l18.453125-20.445313c21.675781-24.015625 61.515625-7.515625 59.859375 24.804688l-1.398437 27.496093c-1.046876 20.359376 15.742187 37.136719 36.089843 36.101563l27.507813-1.410156c32.320312-1.644531 48.816406 38.183593 24.800781 59.867187l-20.441406 18.457032c-15.128907 13.660156-15.128907 37.394531 0 51.054687l20.441406 18.453125c24.015625 21.675781 7.519531 61.515625-24.800781 59.859375zm0 0" fill="#ffcd71"/><path d="m330.667969 202.269531c0 65.378907-49.046875 119.300781-112.363281 126.953125-5.097657.621094-10.273438.945313-15.535157.945313-15.429687 0-30.230469-2.734375-43.929687-7.738281-48.996094-17.925782-83.96875-64.964844-83.96875-120.160157 0-50.847656 29.671875-94.757812 72.636718-115.378906 16.726563-8.023437 35.46875-12.519531 55.261719-12.519531 5.261719 0 10.4375.320312 15.535157.941406 63.316406 7.65625 112.363281 61.578125 112.363281 126.957031zm0 0" fill="#f29500"/><path d="m330.667969 202.269531c0 65.378907-49.046875 119.300781-112.363281 126.953125-5.097657.621094-10.273438.945313-15.535157.945313-15.429687 0-30.230469-2.734375-43.929687-7.738281-23.957032-36.617188-37.882813-80.382813-37.882813-127.410157 0-39.023437 9.589844-75.804687 26.550781-108.128906 16.726563-8.023437 35.46875-12.519531 55.261719-12.519531 5.261719 0 10.4375.320312 15.535157.941406 63.316406 7.65625 112.363281 61.578125 112.363281 126.957031zm0 0" fill="#ffa90b"/><path d="m241.949219 261.132812h-22.886719v-139.636718c0-6.472656-7.714844-10.457032-14.4375-10.457032-2.738281 0-4.976562.996094-6.71875 2.488282l-29.375 22.402344c-3.980469 2.488281-6.222656 7.21875-6.222656 11.699218 0 6.472656 4.234375 12.945313 10.457031 12.945313 1.742187 0 3.980469-.496094 5.972656-2.242188l7.964844-7.964843v110.765624h-23.117187c-8.933594 0-16.179688 7.242188-16.179688 16.179688s7.246094 16.183594 16.179688 16.183594h78.363281c8.9375 0 16.179687-7.246094 16.179687-16.183594s-7.242187-16.179688-16.179687-16.179688zm0 0" fill="#ffcd71"/></svg>